<?xml version="1.0" encoding="utf-8"?>
<!-- Generator: Adobe Illustrator 18.1.1, SVG Export Plug-In . SVG Version: 6.00 Build 0)  -->
<svg version="1.1" id="Layer_1" xmlns="http://www.w3.org/2000/svg" xmlns:xlink="http://www.w3.org/1999/xlink" x="0px" y="0px"
	 width="292.7px" height="80px" viewBox="333.7 0 292.7 80" enable-background="new 333.7 0 292.7 80" xml:space="preserve">
<path fill="#FFFFFF" d="M416.7,25c2.1,2.6,2.8,6.7,2,12.3L414.9,64h-16.5l3.3-23.1c0.4-2.6,0.2-4.5-0.7-5.6
	c-0.9-1.1-2.1-1.7-3.9-1.7c-2,0-3.7,0.8-5.2,2.2c-1.5,1.5-2.4,4.1-3,8L386,64.1h-16.3l6-42H391l-1,6.8c2.6-2.8,5.3-4.8,7.8-6
	s5.5-1.9,8.8-1.9C411.1,21,414.5,22.3,416.7,25z M453.9,22H446c0.3-1.9,0.5-3.1,0.8-3.7c0.4-1.1,1-1.9,1.7-2.3
	c0.7-0.5,1.8-0.7,3.3-0.7c1.2,0,2.7,0.2,4.7,0.5l3.2-9.8c-5.4-0.7-9.5-1-12.4-1c-3.6,0-6.3,0.4-8.4,1.2c-2,0.8-3.6,1.9-4.8,3.2
	c-1.3,1.3-2.1,3-2.8,5.1s-1.2,4-1.4,5.7l-0.3,2h-6L422,33.9h6.1l-4.4,30.2H440l4.4-30.2h7.8L453.9,22z M497.8,28.3
	c2.9,3.9,4,8.8,3.1,14.5c-0.9,6.4-3.9,11.8-8.8,15.9c-5,4.1-11.2,6.1-18.9,6.1c-6.8,0-12.2-1.8-15.9-5.2c-4.6-4.3-6.3-9.9-5.4-16.7
	c0.9-6.4,3.9-11.7,8.9-15.8c5-4.2,11.2-6.2,18.7-6.2C488,21,494,23.4,497.8,28.3z M483.4,34.7c-1.3-1.8-3-2.6-5.3-2.6
	c-2.3,0-4.5,0.9-6.2,2.7c-1.9,1.8-3,4.6-3.5,8.3c-0.6,3.8-0.2,6.5,1.1,8.3c1.3,1.8,3.1,2.7,5.5,2.7s4.4-0.9,6.1-2.6
	c1.8-1.8,2.9-4.6,3.5-8.5C485,39.2,484.7,36.6,483.4,34.7z M549.8,26.5c2.8,3.7,3.8,9,2.8,15.9c-0.7,4.6-2,8.7-4.1,12.1
	c-2,3.5-4.6,6.1-7.6,7.8c-3,1.8-6.1,2.6-9.5,2.6c-2.8,0-5.4-0.6-7.6-1.9c-1.7-1-3.3-2.7-5.1-5.4l-0.9,6.2h-15.3l8.4-58h16.5
	L524.5,26c1.9-1.7,3.9-2.9,6.1-3.8s4.6-1.3,7-1.3C542.8,21,546.9,22.8,549.8,26.5z M535.3,35.4c-1.1-1.6-2.5-2.3-4.4-2.3
	c-2.2,0-4.2,0.8-5.8,2.4c-1.7,1.7-2.7,4.1-3.1,7.4c-0.5,3.6-0.2,6.2,1,7.9c1.2,1.7,2.7,2.4,4.9,2.4c2,0,3.7-0.8,5.3-2.4
	c1.6-1.6,2.6-4.3,3.1-8.1C536.7,39.4,536.4,36.9,535.3,35.4z M560.2,22l-6,42h16.4l6-42H560.2z M352.2,20.7L352.2,20.7l1.2-8l0,0
	c0.2-1.8,2.2-1.7,2.2-1.7l0,0h15.3l1.6-11h-16.3l-1.4,9.2c-0.3,2.1-1.5,1.8-2,1.8h-17.6l-1.6,11h17.9c0.7,0.1,1.7-0.2,1.3,2L347,64
	h16.4l6-42h-15.6C353.1,21.9,352.1,21.7,352.2,20.7z M626.1,35c0.2,1.9,0.3,3.9,0.1,6.2c0,0.7-0.1,1.4-0.2,2.1c-1,7-3.5,12.3-7.4,16
	c-3.9,3.7-8.5,5.6-13.7,5.6c-2.5,0-4.8-0.4-6.7-1.3c-2-0.9-3.6-2.1-5-3.8L590.3,80h-16.5l8.4-58h15.3l-0.9,6.2
	c6-6.5,24.3-10.7,28.8,3.2c0.1,0.2,0.1,0.4,0.2,0.7c0.1,0.3,0.2,0.7,0.3,1c0.1,0.3,0.1,0.5,0.1,0.8C626,34.1,626,34.5,626.1,35
	L626.1,35z M608.9,35.2c-1.1-1.6-2.6-2.3-4.6-2.3c-2,0-3.9,0.8-5.6,2.4c-1.7,1.7-2.7,4.2-3.2,7.8c-0.5,3.3-0.1,5.8,1.1,7.4
	c1.2,1.7,2.8,2.4,5.1,2.4c1.9,0,3.6-0.8,5.1-2.3c1.5-1.6,2.5-4.2,3-7.9C610.2,39.3,610,36.9,608.9,35.2z"/>
</svg>
