<?xml version="1.0" encoding="UTF-8"?>
<svg width="70px" height="70px" viewBox="0 0 70 70" version="1.1" xmlns="http://www.w3.org/2000/svg" xmlns:xlink="http://www.w3.org/1999/xlink">
    <!-- Generator: Sketch 46.2 (44496) - http://www.bohemiancoding.com/sketch -->
    <title>globe</title>
    <desc>Created with Sketch.</desc>
    <defs></defs>
    <g id="Homepage" stroke="none" stroke-width="1" fill="none" fill-rule="evenodd">
        <g id="globe">
            <g id="Group-13" transform="translate(4.000000, 5.000000)">
                <path d="M53.4492348,41.5814248 C52.9264956,41.1354617 52.1625378,41.2252243 51.7436028,41.7816887 C51.1894843,42.5189446 50.5894123,43.2368865 49.9613816,43.9171504 C49.4914368,44.4254881 49.4978316,45.2436412 49.975361,45.743905 C50.2118206,45.9911873 50.5190693,46.1143536 50.8263181,46.1143536 C51.1407052,46.1143536 51.4543488,45.9856464 51.6914032,45.7283905 C52.3768386,44.9863852 53.0316383,44.2022691 53.6375102,43.3977309 C54.0568913,42.8404749 53.9727177,42.0278628 53.4492348,41.5814248 Z" id="Fill-1" fill="#09A2E7"></path>
                <path d="M48.6827153,46.951029 C48.2779084,46.3826913 47.5167762,46.2707652 46.982437,46.7024802 C42.393634,50.4047493 36.8331159,52.5506596 30.901847,52.9081266 C30.2326217,52.9483377 29.7207388,53.5579947 29.7585128,54.2703958 C29.7950971,54.9581003 30.3301799,55.4892348 30.9692156,55.4892348 C30.9924154,55.4892348 31.0156153,55.4887599 31.0389638,55.4874934 C37.453562,55.1008971 43.4736148,52.7751451 48.4486352,48.7610026 C48.9831231,48.3300792 49.0876709,47.52 48.6827153,46.951029 Z" id="Fill-2" fill="#09A2E7"></path>
                <path d="M60.5656272,22.8691821 C60.5656272,22.8691821 60.5656272,22.8691821 60.5656272,22.8685488 C59.8730535,20.0653298 58.7728472,17.3802111 57.2944543,14.8868074 C55.1926409,11.342058 52.4244279,8.3051715 49.0667018,5.86116095 C43.7984121,2.02638522 37.5405613,0 30.9704054,0 C29.1322667,0 27.2866923,0.163218997 25.4852866,0.486015831 C20.3783545,1.39994723 15.5578508,3.61266491 11.5454737,6.88591029 C5.64721996,11.6963588 1.82995922,18.4394723 0.797121612,25.8726649 C0.608994963,27.2306596 0.513072679,28.6079683 0.513072679,29.9677045 C0.513072679,35.3034301 1.956071,40.5417942 4.68591509,45.117467 C7.32608299,49.5421108 11.1003646,53.2513456 15.6008299,55.8443272 C15.6014248,55.8443272 15.6020197,55.8449604 15.6020197,55.8449604 C18.1557832,57.3159894 20.9064476,58.4088127 23.7774238,59.0927177 C26.1249172,59.6523483 28.5449844,59.9355673 30.9704054,59.9355673 C36.860331,59.9355673 42.5761094,58.2783641 47.4983353,55.1430079 C52.3070904,52.08 56.1319357,47.7698153 58.5585464,42.6772559 C60.4621204,38.6829024 61.4277381,34.4067546 61.4277381,29.9677045 C61.4277381,27.5738786 61.1371456,25.1855937 60.5656272,22.8691821 Z M49.5483953,9.46211082 C51.0691725,10.7762533 52.4308227,12.2381003 53.6241257,13.8373615 L51.2248789,13.2511346 C50.455716,13.0630607 49.6651379,13.2622164 49.0562917,13.7965172 C48.4474454,14.3314512 48.1140225,15.1198417 48.1413864,15.9596834 C48.1425762,15.9943536 48.1262173,16.0283905 48.0990022,16.0469129 L46.3370065,17.2719261 C46.3074118,17.2929815 46.2696378,17.294248 46.2388534,17.2750923 L43.756474,15.7705013 C43.5357784,15.6362533 43.4218614,15.3592084 43.4800096,15.0957784 L44.038887,12.5578892 C44.0986711,12.285752 44.3235308,12.091029 44.5855697,12.0835884 L46.6884241,12.0210554 C48.0984073,11.9791029 49.2723771,10.8826385 49.5483953,9.46211082 Z M15.5886352,49.9936148 L15.2342432,52.6285488 C7.60849604,47.5570449 2.94012953,39.0292876 2.94012953,29.9677045 C2.94012953,29.1663325 2.97671384,28.3575198 3.04943632,27.5510818 L4.67312545,27.8305013 C5.08209643,27.9011082 5.49969297,27.9362533 5.91505877,27.9362533 L6.73761094,27.9362533 C7.87752459,27.9362533 9.01029983,28.3345646 9.92639482,29.0574142 L11.1724922,30.0413193 C11.2794195,30.1255409 11.3484241,30.2540897 11.3629983,30.3951451 L11.5314944,32.0586807 C11.5587095,32.3276517 11.3839674,32.5719261 11.1323387,32.6151451 C9.71551451,32.8564116 8.66453346,34.1901847 8.68788199,35.7177309 L8.776071,41.5739842 C8.78662989,42.2393668 8.99230511,42.8707124 9.37153274,43.4001055 L11.3490189,46.1582058 C12.2820676,47.46 13.5443751,48.4302902 14.9983785,48.9639578 C15.4009547,49.1116623 15.6490142,49.5446438 15.5886352,49.9936148 Z M23.4062269,56.3414248 C21.3537875,55.7805277 19.3739218,54.991504 17.502768,53.98781 L17.9907076,50.3602639 C18.2161621,48.6869129 17.2901031,47.0727704 15.7891053,46.521847 C14.7886879,46.1545646 13.9201823,45.4866491 13.2783209,44.5912401 L11.3008347,41.8325066 C11.2386711,41.7459103 11.2044663,41.642058 11.2026817,41.5325066 L11.114344,35.6762533 C11.1103286,35.4245383 11.2834349,35.2055937 11.5163253,35.1660158 C13.0442408,34.905752 14.1108371,33.4190501 13.9445718,31.7810026 L13.7756296,30.1168338 C13.6890765,29.2621108 13.266721,28.4779947 12.61787,27.9660158 L11.3717726,26.9821108 C10.0401631,25.9313984 8.3944639,25.3532454 6.73761094,25.3532454 L5.91505877,25.3532454 C5.62922523,25.3532454 5.34175582,25.3285488 5.0605325,25.2802639 L3.40323339,24.9951451 C4.57958263,18.727124 7.96229312,13.0624274 13.0208923,8.93588391 C16.5872679,6.02754617 20.8488942,4.02633245 25.3767234,3.12965699 C26.0633485,3.7382058 26.5948621,4.51804749 26.9270952,5.41092348 L26.9956536,5.59583113 C27.168165,6.05968338 27.2826769,6.54569921 27.3360662,7.04105541 L27.3976349,7.60448549 C27.5063468,8.60691293 27.3622403,9.62532982 26.9812281,10.5492348 L26.3212233,12.1491293 C25.8890525,13.1966755 25.1802686,14.0722955 24.2717582,14.6814776 L23.449206,15.2324011 C22.6166899,15.7902902 22.1293452,16.78781 22.1787191,17.8340897 L22.2896618,20.1983113 C22.2954617,20.3187863 22.2425186,20.3992084 22.1973087,20.4449604 C22.1519501,20.4913456 22.0746174,20.5432718 21.961444,20.53219 C21.8615064,20.5222164 21.7731686,20.4598417 21.7255793,20.3651715 L20.7159415,18.369657 C20.3661598,17.6783113 19.7579084,17.1606332 19.0474886,16.9491293 L15.4788822,15.8892348 C14.5412233,15.6102902 13.5361957,15.6932454 12.6496954,16.1222691 L11.799928,16.533562 C10.0117582,17.3987335 9.03468937,19.505066 9.47667546,21.542058 C9.65097146,22.348496 10.0343632,23.0843272 10.584615,23.6699208 L12.9029599,26.1379947 C13.0336819,26.2771504 13.1591988,26.4254881 13.2759415,26.5788918 L14.8654258,28.6654354 C15.56722,29.5874406 16.608237,30.1155673 17.7224226,30.114934 L17.7334277,30.114934 L22.0642072,30.1013193 L22.0682226,30.1013193 C22.5115471,30.1013193 22.9251283,30.3543008 23.1487983,30.7617942 C23.6687119,31.711029 24.5459918,32.3876517 25.5550348,32.6176781 L27.178129,32.9874934 C27.5347517,33.0690237 27.8391749,33.3115567 28.0140657,33.6522427 L28.7976541,35.1815303 C29.1120413,35.7949868 29.5871912,36.2867018 30.1722427,36.6026913 L33.8552123,38.5951979 C34.1584457,38.7590501 34.3333365,39.1101847 34.2915471,39.4689182 C34.2671576,39.6774142 34.172425,39.8678628 34.0248981,40.0070185 L32.6260686,41.3241689 C32.2315231,41.6958839 31.9254641,42.1695515 31.7401631,42.6945119 L31.4351451,43.5603166 C31.3421972,43.8237467 31.1487167,44.0371504 30.9040777,44.1446438 L29.4140849,44.8027441 C28.1447877,45.3630079 27.3244663,46.6701847 27.3244663,48.1328232 C27.3244663,48.2973087 27.2866923,48.4611609 27.2147134,48.607124 L23.4062269,56.3414248 Z M30.9704054,57.3525594 C29.2583785,57.3525594 27.5499208,57.1997889 25.8722475,56.8986807 L29.3641161,49.8068074 C29.6173807,49.2922955 29.7515231,48.7135092 29.7515231,48.1328232 C29.7515231,47.7183641 29.9839674,47.3474406 30.3435644,47.1891293 L31.8335572,46.531029 C32.6968578,46.1501319 33.3800624,45.3975198 33.7076853,44.4668074 L34.0127033,43.6017942 C34.058508,43.4705541 34.1352459,43.3518206 34.2339938,43.2592084 L35.6328232,41.9418997 C36.2230799,41.3859103 36.6018614,40.6215831 36.6994195,39.7898153 C36.8685104,38.3532982 36.1673111,36.948285 34.9549724,36.2922427 L31.2718542,34.2997361 C31.1255169,34.2205805 31.0069897,34.0980475 30.928616,33.9448021 L30.1448789,32.4153562 C29.63136,31.4129288 28.7350444,30.7011609 27.6864428,30.4613193 L26.0639434,30.091504 C25.7205565,30.0136148 25.4219333,29.7829551 25.2454066,29.46 C24.5883761,28.2615831 23.3712785,27.5176781 22.0682226,27.5176781 L22.0566227,27.5176781 L17.726438,27.5319261 L17.7224226,27.5319261 C17.3430463,27.5319261 16.9892492,27.3519261 16.7505589,27.0389446 L15.1604797,24.9519261 C14.9909427,24.7287071 14.8084673,24.5134037 14.618556,24.3112401 L12.3000624,21.8431662 C12.0723771,21.6007916 11.9136963,21.2958839 11.8411226,20.961372 C11.6580523,20.1172559 12.0630079,19.2440106 12.804212,18.8854354 L13.6541281,18.4741425 C14.0213097,18.2966755 14.4378652,18.2620053 14.826462,18.3777309 L18.3956632,19.4376253 C18.4735908,19.4610554 18.5403646,19.5180475 18.5791797,19.5940369 L19.5889662,21.590343 C20.0217318,22.4461741 20.8227201,23.0119789 21.7313792,23.1041161 C22.5201727,23.183905 23.3015303,22.8957784 23.8743871,22.3125594 C24.4476901,21.7293404 24.753303,20.9118206 24.7137443,20.068971 L24.6028016,17.7049077 C24.5970017,17.5898153 24.6511346,17.4797889 24.7428928,17.4185224 L25.5648501,16.8674406 C26.8859007,15.9820053 27.9159127,14.7093404 28.5437947,13.1879683 L29.2037995,11.5875989 C29.7574718,10.2449604 29.9665675,8.76522427 29.8084817,7.30828496 L29.7475078,6.74485488 C29.669729,6.02501319 29.5030175,5.31878628 29.2525786,4.64532982 L29.1834253,4.45978892 C28.9511298,3.83461741 28.6501271,3.24775726 28.2893404,2.70791557 L28.291125,2.70791557 C29.1811945,2.62511873 30.0769153,2.58364116 30.9704054,2.58364116 C36.8337107,2.58364116 42.4215927,4.32316623 47.173538,7.62174142 L47.1827585,8.81841689 C47.1851379,9.15102902 46.9330631,9.42934037 46.6210554,9.43868074 L44.5180523,9.50105541 C43.1552123,9.54126649 41.9864476,10.5560422 41.6762245,11.9691293 L41.1173471,14.5063852 C40.8158983,15.8762533 41.407196,17.3195778 42.5557352,18.0151979 L45.0381147,19.5204222 C45.4273063,19.7561478 45.8570976,19.8736148 46.2858479,19.8736148 C46.7657568,19.8736148 47.2443272,19.7270185 47.663857,19.4350923 L49.425704,18.2100792 C50.1600672,17.6998417 50.597443,16.8031662 50.5666587,15.8700792 C50.5660638,15.8570976 50.5650228,15.8205277 50.6010122,15.789657 C50.6370017,15.758153 50.6695706,15.7660686 50.6817654,15.7692348 L53.4034301,16.4346174 C53.4707988,16.4507652 53.5398033,16.4650132 53.6095515,16.4754617 L55.5330535,16.7691293 C56.3701799,18.2515567 57.0614152,19.8036412 57.601703,21.40781 L55.721775,20.9241689 C55.6468218,20.9050132 55.5702327,20.8883905 55.4940897,20.875409 L53.4416503,20.5228496 C51.2126841,20.140686 48.9465387,20.9458575 47.3808491,22.6792084 L47.0718158,23.0213193 C46.1563157,24.0348285 45.5370592,25.3000528 45.2802255,26.6797361 L44.4978268,30.8898681 C44.2247829,32.3578892 44.3763253,33.8588391 44.9357976,35.2315567 C45.9128664,37.6279156 48.0338642,39.3007916 50.4720748,39.5969921 L50.8518973,39.6427441 C51.894699,39.7695515 52.968285,39.6372032 53.955764,39.2605805 L55.2500456,38.767124 C55.4801103,38.6792612 55.7393236,38.7565172 55.8944351,38.9599472 L56.0639722,39.1831662 C56.1435356,39.2871768 56.1888942,39.4188918 56.1929096,39.5523483 L56.2538834,41.7978364 C51.606486,51.2575726 41.7186088,57.3525594 30.9704054,57.3525594 Z M57.9223363,37.5204222 L57.7806093,37.334248 C57.1991269,36.5692876 56.3330007,36.1481794 55.4429312,36.1481794 C55.1043032,36.1481794 54.7627009,36.2092876 54.4316575,36.3354617 L53.1372272,36.828285 C52.4977453,37.0725594 51.8023459,37.1585224 51.1279156,37.0763588 L50.7473495,37.0299736 C49.1690189,36.8382586 47.7951739,35.7547757 47.162533,34.2031662 C46.7999616,33.3139314 46.7018086,32.3418997 46.878484,31.3913984 L47.6608827,27.1812665 C47.8269993,26.2875989 48.2285344,25.4683377 48.8216167,24.8121372 L49.1300552,24.4701847 C50.143857,23.3477573 51.6118398,22.8258047 53.055433,23.0738786 L55.1072775,23.4262797 C55.121703,23.4288127 55.1368722,23.4318206 55.1512977,23.4356201 L58.3900504,24.268496 C58.7954521,26.1367282 59.0005325,28.0500792 59.0005325,29.9677045 C59.0005325,32.5551451 58.6392996,35.0819525 57.9223363,37.5204222 Z" id="Fill-4" fill="#FF6002"></path>
            </g>
        </g>
    </g>
</svg>