<?xml version="1.0" encoding="UTF-8"?>
<svg width="70px" height="70px" viewBox="0 0 70 70" version="1.1" xmlns="http://www.w3.org/2000/svg" xmlns:xlink="http://www.w3.org/1999/xlink">
    <!-- Generator: Sketch 46.2 (44496) - http://www.bohemiancoding.com/sketch -->
    <title>support</title>
    <desc>Created with Sketch.</desc>
    <defs></defs>
    <g id="Homepage" stroke="none" stroke-width="1" fill="none" fill-rule="evenodd">
        <g id="support" stroke="#FF6002" stroke-width="0.3" fill="#FF6002">
            <path d="M6.44460596,62.4256595 C6.90128216,58.3614373 7.42067783,57.7052348 7.96790527,57.0141445 C8.04356064,56.9188893 8.119608,56.8224581 8.19643936,56.720539 C10.3739812,53.8264271 15.2465006,51.3113761 25.4141119,47.8688608 C25.877844,51.4172152 28.2541282,56.1113761 34.997256,56.117648 L35.0109759,56.117648 C37.9419355,56.117648 40.2860759,55.2411433 41.9771499,53.5128297 C43.7724949,51.677893 44.3742099,49.3310086 44.5764802,47.8653328 C54.7507554,51.3102001 59.6256268,53.8252511 61.8035606,56.720147 C61.880392,56.8224581 61.9564394,56.9188893 62.0320947,57.0141445 C62.5797142,57.7052348 63.0987178,58.3614373 63.555394,62.4256595 L6.44460596,62.4256595 Z M35.0305757,47.7347979 L35.0921192,47.7344059 L35.1701266,47.7347979 C37.4891793,47.7347979 39.8591915,46.8598612 42.6408003,44.9500531 C42.6408003,46.0476439 42.922646,49.644998 40.5083381,52.0988975 C39.2159249,53.4132626 37.3660923,54.079265 35.0105839,54.079265 L34.999216,54.079265 C32.6284198,54.076913 30.7703552,53.4026786 29.475198,52.0753777 C27.07461,49.6140302 27.3591997,46.1084034 27.3591997,44.8124622 C30.2293998,46.8206615 32.6562515,47.7347979 35.0305757,47.7347979 L35.0305757,47.7347979 Z M23.7661576,33.0592242 L23.719902,32.5276766 L23.2569539,32.2630788 C22.6697428,31.9271376 21.9672846,30.7574194 21.8124459,28.9828501 C21.6211515,26.8006043 22.1879788,25.4635035 22.6713107,25.3376725 L22.8594692,25.2882809 C22.9276766,25.2890649 23.003332,25.2894569 23.0954512,25.2894569 C25.1530421,25.2894569 33.08588,25.0636668 40.0210862,21.80147 C45.4929686,24.4901756 46.644263,25.1060024 47.5317436,25.3376725 C48.0142915,25.4635035 48.5815108,26.8006043 48.3910004,28.9828501 C48.2349857,30.7578114 47.5325276,31.9275296 46.9457085,32.2630788 L46.4827603,32.5276766 L46.4361127,33.0592242 C46.3541854,34.0000163 46.1072274,35.7683136 45.6544712,37.4911392 C43.9077338,38.4954349 41.4906819,39.4781707 38.3464761,40.0206942 L37.8129686,40.1128134 L37.5903144,40.6063373 C37.4448836,40.9301266 37.1222703,41.1394528 36.7690813,41.1394528 C36.2720294,41.1394528 35.8674888,40.7349122 35.8674888,40.2374684 C35.8674888,39.7404165 36.2720294,39.3362679 36.7690813,39.3362679 C37.0822866,39.3362679 37.3684443,39.4965945 37.5350429,39.7658963 L39.2684524,38.6933932 C38.7278889,37.8196325 37.7933687,37.2974929 36.7690813,37.2974929 C35.1481748,37.2974929 33.8291058,38.6165619 33.8291058,40.2374684 C33.8291058,41.8587668 35.1481748,43.1774439 36.7690813,43.1774439 C37.7275133,43.1774439 38.6157779,42.7078318 39.1610453,41.9442221 C41.2609718,41.5463454 43.0888526,40.9544304 44.6454716,40.2715721 C44.3436341,40.8595672 44.002205,41.3526991 43.6125602,41.6702164 C40.1947407,44.4545692 37.5910984,45.6964149 35.1701266,45.6964149 L35.0921192,45.6964149 L35.0305757,45.6964149 C32.6111719,45.6964149 30.0083136,44.4545692 26.5904941,41.6702164 C24.7606533,40.1790608 23.9311882,34.9486484 23.7661576,33.0592242 L23.7661576,33.0592242 Z M46.394561,22.5701756 L40.0101102,19.5396488 L39.5675459,19.757599 C33.5143324,22.7406942 26.2910086,23.1840425 23.6709024,23.241666 C23.8618048,22.28441 24.1111147,21.0566762 24.2490976,20.4667211 C25.996227,13.0058473 27.564606,13.0058473 35.1019192,13.0058473 C42.6384483,13.0058473 44.2068273,13.0058473 45.9539567,20.4667211 C46.041764,20.843038 46.2232585,21.7226786 46.394561,22.5701756 L46.394561,22.5701756 Z M20.8105022,33.5178604 C20.6270478,33.6409473 20.240147,33.6985708 19.755639,33.4571009 C19.2091956,33.1846631 17.4040506,31.8949939 17.1116211,26.7355329 C17.0187178,25.0946345 17.5114577,24.4219682 18.0332054,23.7101021 C18.4679298,23.117011 18.9606697,22.4443446 19.0186852,21.3890894 C19.4726174,13.0967905 22.3831931,7.57434055 35.1125031,7.57434055 C45.8634055,7.57434055 50.6763414,11.7059861 51.205929,21.3894814 C51.2639445,22.4368967 51.7363005,23.115443 52.1526011,23.7136301 C52.637501,24.4106002 53.0957452,25.0695468 53.1067211,26.5689343 L53.0922172,26.6986852 C52.7907717,29.4583422 52.3348795,33.6291874 50.1761535,33.6291874 L49.3764802,33.6201715 L49.1879298,34.399069 C49.1103144,34.644459 48.7583013,35.122303 48.1330666,35.7028501 C48.2796733,34.8706411 48.3694406,34.165047 48.4196162,33.7111147 C49.4972152,32.8197142 50.2478889,31.1380482 50.4215435,29.1604247 C50.6583095,26.4485913 50.002499,24.4168722 48.6861739,23.6328787 C48.4933116,22.6591588 48.0915149,20.6552715 47.9382442,20.001813 C45.919069,11.3790608 43.2464353,10.9678563 35.1019192,10.9678563 C26.956619,10.9678563 24.2835933,11.3790608 22.2644181,20.001813 C22.0746917,20.8128542 21.6987668,22.7003185 21.5157044,23.6332707 C20.1997713,24.4176562 19.5443528,26.4493753 19.7819028,29.1604247 C19.9155737,30.6903879 20.3981217,32.0388567 21.1076358,32.9859208 C21.0970519,33.200343 20.9896448,33.3979094 20.8105022,33.5178604 L20.8105022,33.5178604 Z M63.6302654,55.7487791 C63.564802,55.6660678 63.4989465,55.5829645 63.4323071,55.4947652 C60.9117681,52.1443691 55.7969947,49.4799673 44.6791833,45.7493344 L44.6791833,43.4263618 C44.7532707,43.3667783 44.8253981,43.3107227 44.9002695,43.2503552 C46.0621478,42.3032911 46.8567252,40.5710576 47.3988567,38.8066803 C49.1499061,37.6859616 50.3094324,36.5138914 50.8480359,35.6138669 C54.2297918,35.0509596 54.7605553,30.197648 55.1188403,26.9201633 L55.1451041,26.6226378 C55.1451041,24.44588 54.3826705,23.3498571 53.8256431,22.5493998 C53.4489343,22.0080523 53.2666558,21.7273826 53.241568,21.2773704 C52.645733,10.3908371 47.0546835,5.53595753 35.1125031,5.53595753 C23.0092119,5.53595753 17.5871131,10.2438383 16.9834381,21.2773704 C16.9599183,21.7089588 16.7741119,21.9806125 16.3891711,22.5051041 C15.7788322,23.3384892 14.9423111,24.4791997 15.076766,26.8511719 C15.4087873,32.716227 17.5808412,34.6503389 18.8462066,35.2810617 C19.9194937,35.8161372 21.077452,35.7906574 21.9437648,35.2124622 C21.9574847,35.2030543 21.9692446,35.1916864 21.9829645,35.1822785 C22.3710412,37.6240261 23.2918416,41.6110249 25.3027848,43.2503552 C25.3090568,43.2550592 25.3149367,43.2597632 25.3212087,43.2648591 L25.3235606,45.7485504 C14.2037893,49.4795753 9.08862393,52.1439771 6.56730094,55.4951572 C6.50105349,55.5829645 6.43519804,55.6660678 6.37012658,55.7487791 C5.44658228,56.9149694 4.80331564,58.0741037 4.30038383,63.3480278 L4.19376072,64.4640425 L65.8062393,64.4640425 L65.7000082,63.3480278 C65.1966844,58.0741037 64.5538097,56.9149694 63.6302654,55.7487791 L63.6302654,55.7487791 Z" id="Fill-1"></path>
        </g>
    </g>
</svg>