<svg 
 xmlns="http://www.w3.org/2000/svg"
 xmlns:xlink="http://www.w3.org/1999/xlink"
 width="16px" height="16px">
<defs>
<filter id="Filter_0">
    <feFlood flood-color="rgb(254, 254, 254)" flood-opacity="1" result="floodOut" />
    <feComposite operator="atop" in="floodOut" in2="SourceGraphic" result="compOut" />
    <feBlend mode="normal" in="compOut" in2="SourceGraphic" />
</filter>

</defs>
<g filter="url(#Filter_0)">
<path fill-rule="evenodd"  fill="rgb(0, 0, 0)"
 d="M11.234,16.000 L4.766,16.000 C2.138,16.000 -0.000,13.862 -0.000,11.234 L-0.000,4.766 C-0.000,2.138 2.138,-0.000 4.766,-0.000 L11.234,-0.000 C13.862,-0.000 16.000,2.138 16.000,4.766 L16.000,11.234 C16.000,13.862 13.862,16.000 11.234,16.000 ZM14.390,4.766 C14.390,3.023 12.977,1.609 11.234,1.609 L4.766,1.609 C3.023,1.609 1.610,3.023 1.610,4.766 L1.610,11.234 C1.610,12.977 3.023,14.391 4.766,14.391 L11.234,14.391 C12.977,14.391 14.390,12.977 14.390,11.234 L14.390,4.766 ZM11.150,2.898 L13.145,2.898 L13.145,4.885 L11.150,4.885 L11.150,2.898 ZM8.000,12.138 C5.718,12.138 3.862,10.282 3.862,8.000 C3.862,5.718 5.718,3.861 8.000,3.861 C10.282,3.861 12.138,5.718 12.138,8.000 C12.138,10.282 10.282,12.138 8.000,12.138 ZM8.000,5.471 C6.603,5.471 5.471,6.603 5.471,8.000 C5.471,9.396 6.603,10.528 8.000,10.528 C9.397,10.528 10.529,9.396 10.529,8.000 C10.529,6.603 9.397,5.471 8.000,5.471 Z"/>
</g>
</svg>