<svg xmlns="http://www.w3.org/2000/svg" xmlns:xlink="http://www.w3.org/1999/xlink" width="17" height="10" viewBox="0 0 17 10">
  <metadata><?xpacket begin="﻿" id="W5M0MpCehiHzreSzNTczkc9d"?>
<x:xmpmeta xmlns:x="adobe:ns:meta/" x:xmptk="Adobe XMP Core 5.6-c142 79.160924, 2017/07/13-01:06:39        ">
   <rdf:RDF xmlns:rdf="http://www.w3.org/1999/02/22-rdf-syntax-ns#">
      <rdf:Description rdf:about=""/>
   </rdf:RDF>
</x:xmpmeta>
                                                                                                    
                                                                                                    
                                                                                                    
                                                                                                    
                                                                                                    
                                                                                                    
                                                                                                    
                                                                                                    
                                                                                                    
                                                                                                    
                                                                                                    
                                                                                                    
                                                                                                    
                                                                                                    
                                                                                                    
                                                                                                    
                                                                                                    
                                                                                                    
                                                                                                    
                                                                                                    
                           
<?xpacket end="w"?></metadata>
<defs>
    <style>
      .cls-1 {
        fill: #1d57c2;
        fill-rule: evenodd;
        filter: url(#filter);
      }
    </style>
    <filter id="filter" x="1736" y="1417" width="17" height="10" filterUnits="userSpaceOnUse">
      <feFlood result="flood" flood-color="#fefefe"/>
      <feComposite result="composite" operator="in" in2="SourceGraphic"/>
      <feBlend result="blend" in2="SourceGraphic"/>
    </filter>
  </defs>
  <path id="Фигура_2" data-name="Фигура 2" class="cls-1" d="M1752.61,1417.68c0.12-.39,0-0.68-0.56-0.68h-1.86a0.806,0.806,0,0,0-.81.53,15.383,15.383,0,0,1-2.28,3.77,1.391,1.391,0,0,1-.87.56c-0.12,0-.29-0.14-0.29-0.53v-3.65c0-.47-0.14-0.68-0.53-0.68h-2.92a0.453,0.453,0,0,0-.48.43c0,0.44.67,0.54,0.74,1.79v2.72c0,0.59-.11.7-0.34,0.7-0.63,0-2.17-2.29-3.08-4.92a0.8,0.8,0,0,0-.83-0.72h-1.86c-0.53,0-.64.25-0.64,0.53,0,0.48.63,2.91,2.94,6.11a7.233,7.233,0,0,0,5.67,3.37c1.18,0,1.33-.26,1.33-0.72v-1.65c0-.53.11-0.63,0.49-0.63,0.27,0,.75.14,1.85,1.19,1.26,1.25,1.47,1.81,2.18,1.81h1.86a0.557,0.557,0,0,0,.64-0.78,7.909,7.909,0,0,0-1.57-2.16c-0.43-.51-1.08-1.06-1.28-1.33a0.565,0.565,0,0,1,0-.82S1752.38,1418.76,1752.61,1417.68Z" transform="translate(-1736 -1417)"/>
</svg>
